<svg width="24" height="24" viewBox="0 0 24 24" fill="none" xmlns="http://www.w3.org/2000/svg">
<rect width="24" height="24" transform="translate(1.04907e-06 24) rotate(-90)" fill="white"/>
<path fill-rule="evenodd" clip-rule="evenodd" d="M4.22485 19.7201C4.25671 19.7878 4.29993 19.8259 4.34499 19.8259L6.83705 19.8259C6.85936 19.8259 6.88146 19.8165 6.90207 19.7984C6.92269 19.7802 6.94142 19.7536 6.9572 19.7201C6.97298 19.6865 6.98549 19.6467 6.99403 19.6029C7.00257 19.5591 7.00696 19.5121 7.00696 19.4647L7.00696 4.53533C7.00696 4.4879 7.00257 4.44093 6.99403 4.39711C6.98549 4.35329 6.97297 4.31347 6.9572 4.27993C6.94142 4.24639 6.92269 4.21978 6.90207 4.20163C6.88146 4.18348 6.85936 4.17414 6.83705 4.17414L4.34499 4.17414C4.29993 4.17414 4.25671 4.21219 4.22485 4.27993C4.19298 4.34766 4.17508 4.43953 4.17508 4.53533L4.17508 19.4647C4.17508 19.5605 4.19298 19.6523 4.22485 19.7201Z" fill="black" stroke="black" stroke-width="1.5"/>
<path fill-rule="evenodd" clip-rule="evenodd" d="M10.6338 19.7614C10.6657 19.8027 10.7089 19.8259 10.754 19.8259L13.246 19.8259C13.2683 19.8259 13.2904 19.8202 13.311 19.8091C13.3317 19.798 13.3504 19.7818 13.3662 19.7614C13.3819 19.7409 13.3945 19.7166 13.403 19.6899C13.4115 19.6632 13.4159 19.6346 13.4159 19.6056L13.4159 10.5027C13.4159 10.4738 13.4115 10.4451 13.403 10.4184C13.3945 10.3917 13.3819 10.3674 13.3662 10.347C13.3504 10.3265 13.3317 10.3103 13.311 10.2992C13.2904 10.2882 13.2683 10.2825 13.246 10.2825L10.754 10.2825C10.7089 10.2825 10.6657 10.3057 10.6338 10.347C10.6019 10.3883 10.584 10.4443 10.584 10.5027L10.584 19.6056C10.584 19.664 10.6019 19.7201 10.6338 19.7614Z" fill="black" stroke="black" stroke-width="1.5"/>
<path fill-rule="evenodd" clip-rule="evenodd" d="M10.6338 7.30584C10.6657 7.31948 10.7089 7.32715 10.754 7.32715L13.246 7.32715C13.2683 7.32715 13.2904 7.32527 13.311 7.32161C13.3317 7.31795 13.3504 7.31259 13.3662 7.30584C13.3819 7.29908 13.3945 7.29106 13.403 7.28223C13.4115 7.2734 13.4159 7.26394 13.4159 7.25439L13.4159 4.2469C13.4159 4.23734 13.4115 4.22788 13.403 4.21905C13.3945 4.21022 13.3819 4.2022 13.3662 4.19545C13.3504 4.18869 13.3317 4.18333 13.311 4.17967C13.2904 4.17602 13.2683 4.17413 13.246 4.17413L10.754 4.17413C10.7089 4.17413 10.6657 4.1818 10.6338 4.19545C10.6019 4.20909 10.584 4.2276 10.584 4.2469L10.584 7.25439C10.584 7.27369 10.6019 7.29219 10.6338 7.30584Z" fill="black" stroke="black" stroke-width="1.5"/>
<path fill-rule="evenodd" clip-rule="evenodd" d="M17.0428 19.8055C17.0746 19.8185 17.1179 19.8259 17.1629 19.8259L19.655 19.8259C19.6773 19.8259 19.6994 19.8241 19.72 19.8206C19.7406 19.8171 19.7594 19.8119 19.7751 19.8055C19.7909 19.799 19.8034 19.7913 19.812 19.7829C19.8205 19.7745 19.8249 19.7654 19.8249 19.7563L19.8249 16.8794C19.8249 16.8703 19.8205 16.8612 19.812 16.8528C19.8034 16.8443 19.7909 16.8367 19.7751 16.8302C19.7594 16.8237 19.7406 16.8186 19.72 16.8151C19.6994 16.8116 19.6773 16.8098 19.655 16.8098L17.1629 16.8098C17.1179 16.8098 17.0746 16.8171 17.0428 16.8302C17.0109 16.8433 16.993 16.861 16.993 16.8794L16.993 19.7563C16.993 19.7747 17.0109 19.7924 17.0428 19.8055Z" fill="black" stroke="black" stroke-width="1.5"/>
<path fill-rule="evenodd" clip-rule="evenodd" d="M17.0428 14.0294C17.0746 14.0723 17.1179 14.0965 17.1629 14.0965L19.655 14.0965C19.6773 14.0965 19.6994 14.0905 19.72 14.079C19.7406 14.0675 19.7594 14.0507 19.7751 14.0294C19.7909 14.0081 19.8034 13.9829 19.812 13.9551C19.8205 13.9273 19.8249 13.8976 19.8249 13.8675L19.8249 4.40311C19.8249 4.37304 19.8205 4.34327 19.812 4.31549C19.8034 4.2877 19.7909 4.26246 19.7751 4.2412C19.7594 4.21994 19.7406 4.20307 19.72 4.19156C19.6994 4.18006 19.6773 4.17413 19.655 4.17413L17.1629 4.17413C17.1179 4.17413 17.0746 4.19826 17.0428 4.2412C17.0109 4.28414 16.993 4.34238 16.993 4.40311L16.993 13.8675C16.993 13.9282 17.0109 13.9865 17.0428 14.0294Z" fill="black" stroke="black" stroke-width="1.5"/>
</svg>
