<svg viewBox="0 0 24 24" fill="none" xmlns="http://www.w3.org/2000/svg">
<path d="M18.5 3.99999C18.303 3.99999 18.108 4.03879 17.926 4.11417C17.744 4.18956 17.5786 4.30005 17.4393 4.43933C17.3001 4.57862 17.1896 4.74398 17.1142 4.92597C17.0388 5.10796 17 5.30301 17 5.49999C17 5.69698 17.0388 5.89203 17.1142 6.07402C17.1896 6.25601 17.3001 6.42137 17.4393 6.56065C17.5786 6.69994 17.744 6.81043 17.926 6.88581C18.108 6.9612 18.303 6.99999 18.5 6.99999C18.8978 6.99999 19.2794 6.84196 19.5607 6.56065C19.842 6.27935 20 5.89782 20 5.49999C20 5.10217 19.842 4.72064 19.5607 4.43933C19.2794 4.15803 18.8978 3.99999 18.5 3.99999ZM15 5.49999C14.9999 4.68906 15.2813 3.90324 15.7963 3.2768C16.3113 2.65036 17.0278 2.22218 17.8234 2.06542C18.619 1.90865 19.4444 2.03303 20.1585 2.41731C20.8726 2.80158 21.4312 3.4219 21.7386 4.17228C22.0461 4.92266 22.0835 5.75653 21.8444 6.53141C21.6053 7.30629 21.1045 7.97409 20.4277 8.42072C19.7508 8.86735 18.9399 9.06508 18.1334 8.98014C17.3269 8.8952 16.575 8.53284 16.006 7.95499L9 12L16.006 16.045C16.5959 15.446 17.3816 15.0794 18.2195 15.0121C19.0575 14.9448 19.8917 15.1813 20.5696 15.6785C21.2475 16.1756 21.7238 16.9001 21.9114 17.7196C22.0991 18.539 21.9855 19.3986 21.5916 20.1412C21.1976 20.8838 20.5495 21.4598 19.7657 21.7639C18.982 22.0679 18.115 22.0798 17.3233 21.7972C16.5316 21.5147 15.868 20.9566 15.4539 20.225C15.0398 19.4934 14.9028 18.6372 15.068 17.813L8.398 13.963C7.9781 14.5833 7.37026 15.0525 6.66384 15.3017C5.95742 15.5509 5.18971 15.5668 4.47355 15.3472C3.75739 15.1276 3.13058 14.684 2.68527 14.0817C2.23996 13.4794 1.99963 12.7501 1.99963 12.001C1.99963 11.2519 2.23996 10.5226 2.68527 9.92028C3.13058 9.31795 3.75739 8.87438 4.47355 8.65478C5.18971 8.43518 5.95742 8.45113 6.66384 8.70029C7.37026 8.94946 7.9781 9.41868 8.398 10.039L15.068 6.18699C15.0228 5.96078 15.0001 5.73067 15 5.49999ZM5.50001 10.5C5.10218 10.5 4.72065 10.658 4.43934 10.9393C4.15804 11.2206 4.00001 11.6022 4.00001 12C4.00001 12.3978 4.15804 12.7794 4.43934 13.0607C4.72065 13.342 5.10218 13.5 5.50001 13.5C5.89783 13.5 6.27936 13.342 6.56067 13.0607C6.84197 12.7794 7 12.3978 7 12C7 11.6022 6.84197 11.2206 6.56067 10.9393C6.27936 10.658 5.89783 10.5 5.50001 10.5ZM18.5 17C18.303 16.9999 18.108 17.0387 17.9259 17.114C17.7439 17.1893 17.5785 17.2997 17.4392 17.439C17.2999 17.5782 17.1893 17.7435 17.1139 17.9255C17.0384 18.1075 16.9996 18.3025 16.9995 18.4995C16.9994 18.6965 17.0382 18.8915 17.1135 19.0736C17.1888 19.2556 17.2992 19.421 17.4385 19.5603C17.5777 19.6996 17.7431 19.8102 17.925 19.8856C18.107 19.9611 18.302 19.9999 18.499 20C18.8968 20.0001 19.2784 19.8422 19.5598 19.561C19.8412 19.2798 19.9994 18.8983 19.9995 18.5005C19.9996 18.1027 19.8417 17.7211 19.5605 17.4397C19.2793 17.1583 18.8978 17.0001 18.5 17Z" fill="currentColor"/>
</svg>
